<mxfile host="app.diagrams.net" modified="2021-06-29T10:53:32.395Z" agent="5.0 (Windows NT 10.0; Win64; x64) AppleWebKit/537.36 (KHTML, like Gecko) Chrome/91.0.4472.114 Safari/537.36 Edg/91.0.864.59" etag="SdtcC8cGeFO9zlfG2gVC" version="14.8.1" type="github">
  <diagram id="K_BuHSswKPX9uB2ocHRl" name="Page-1">
    <mxGraphModel dx="1374" dy="762" grid="1" gridSize="10" guides="1" tooltips="1" connect="1" arrows="1" fold="1" page="1" pageScale="1" pageWidth="827" pageHeight="1169" math="0" shadow="0">
      <root>
        <mxCell id="0" />
        <mxCell id="1" parent="0" />
        <mxCell id="jOdsc0MlEUiFb4ZaQy2u-1" value="" style="rounded=1;whiteSpace=wrap;html=1;" vertex="1" parent="1">
          <mxGeometry y="140" width="420" height="150" as="geometry" />
        </mxCell>
        <mxCell id="jOdsc0MlEUiFb4ZaQy2u-2" value="因果知识网络生成" style="rounded=1;whiteSpace=wrap;html=1;" vertex="1" parent="1">
          <mxGeometry x="165" y="125" width="110" height="30" as="geometry" />
        </mxCell>
        <mxCell id="jOdsc0MlEUiFb4ZaQy2u-3" value="目标网络信息" style="rounded=1;whiteSpace=wrap;html=1;" vertex="1" parent="1">
          <mxGeometry x="20" y="160" width="80" height="30" as="geometry" />
        </mxCell>
        <mxCell id="jOdsc0MlEUiFb4ZaQy2u-4" value="" style="rounded=1;whiteSpace=wrap;html=1;" vertex="1" parent="1">
          <mxGeometry x="20" y="200" width="80" height="30" as="geometry" />
        </mxCell>
        <mxCell id="jOdsc0MlEUiFb4ZaQy2u-5" value="目标网络历史告警库" style="rounded=1;whiteSpace=wrap;html=1;" vertex="1" parent="1">
          <mxGeometry x="5" y="240" width="110" height="30" as="geometry" />
        </mxCell>
        <mxCell id="jOdsc0MlEUiFb4ZaQy2u-7" value="" style="rounded=0;whiteSpace=wrap;html=1;" vertex="1" parent="1">
          <mxGeometry x="130" y="180" width="80" height="30" as="geometry" />
        </mxCell>
        <mxCell id="jOdsc0MlEUiFb4ZaQy2u-8" value="" style="rounded=1;whiteSpace=wrap;html=1;" vertex="1" parent="1">
          <mxGeometry x="240" y="180" width="80" height="30" as="geometry" />
        </mxCell>
        <mxCell id="jOdsc0MlEUiFb4ZaQy2u-9" value="" style="rounded=0;whiteSpace=wrap;html=1;" vertex="1" parent="1">
          <mxGeometry x="130" y="240" width="80" height="30" as="geometry" />
        </mxCell>
        <mxCell id="jOdsc0MlEUiFb4ZaQy2u-10" value="" style="rounded=1;whiteSpace=wrap;html=1;" vertex="1" parent="1">
          <mxGeometry x="240" y="240" width="80" height="30" as="geometry" />
        </mxCell>
        <mxCell id="jOdsc0MlEUiFb4ZaQy2u-11" value="因果知识网络" style="rounded=1;whiteSpace=wrap;html=1;" vertex="1" parent="1">
          <mxGeometry x="334" y="200" width="80" height="30" as="geometry" />
        </mxCell>
      </root>
    </mxGraphModel>
  </diagram>
</mxfile>
